<mxfile host="app.diagrams.net" modified="2021-09-05T06:30:35.544Z" agent="5.0 (Windows NT 10.0; Win64; x64) AppleWebKit/537.36 (KHTML, like Gecko) Chrome/92.0.4515.159 Safari/537.36" etag="l8tCZ7yO5y6jfVGK61Qw" version="14.8.3" type="github">
  <diagram id="oGEKtyC2XH-2EGb2wJ9o" name="第 1 页">
    <mxGraphModel dx="746" dy="827" grid="1" gridSize="10" guides="1" tooltips="1" connect="1" arrows="1" fold="1" page="1" pageScale="1" pageWidth="827" pageHeight="1169" background="#F1FAEE" math="0" shadow="0">
      <root>
        <mxCell id="0" />
        <mxCell id="1" parent="0" />
        <mxCell id="BzczfYEui5YNDzhWGODl-1" value="" style="rounded=1;whiteSpace=wrap;html=1;fillColor=#A8DADC;strokeColor=#457B9D;fontColor=#1D3557;" vertex="1" parent="1">
          <mxGeometry x="280" y="120" width="280" height="80" as="geometry" />
        </mxCell>
        <mxCell id="BzczfYEui5YNDzhWGODl-2" value="" style="rounded=1;whiteSpace=wrap;html=1;fillColor=#A8DADC;strokeColor=#457B9D;fontColor=#1D3557;" vertex="1" parent="1">
          <mxGeometry x="280" y="240" width="280" height="80" as="geometry" />
        </mxCell>
        <mxCell id="BzczfYEui5YNDzhWGODl-3" value="" style="rounded=0;whiteSpace=wrap;html=1;fillColor=#A8DADC;strokeColor=#457B9D;fontColor=#1D3557;" vertex="1" parent="1">
          <mxGeometry x="280" y="360" width="280" height="280" as="geometry" />
        </mxCell>
        <mxCell id="BzczfYEui5YNDzhWGODl-4" value="view" style="rounded=1;whiteSpace=wrap;html=1;fillColor=#A8DADC;strokeColor=#457B9D;fontColor=#1D3557;" vertex="1" parent="1">
          <mxGeometry x="280" y="120" width="40" height="20" as="geometry" />
        </mxCell>
        <mxCell id="BzczfYEui5YNDzhWGODl-5" value="service" style="rounded=1;whiteSpace=wrap;html=1;fillColor=#A8DADC;strokeColor=#457B9D;fontColor=#1D3557;" vertex="1" parent="1">
          <mxGeometry x="280" y="240" width="40" height="20" as="geometry" />
        </mxCell>
        <mxCell id="BzczfYEui5YNDzhWGODl-6" value="domain" style="rounded=1;whiteSpace=wrap;html=1;fillColor=#A8DADC;strokeColor=#457B9D;fontColor=#1D3557;" vertex="1" parent="1">
          <mxGeometry x="280" y="360" width="40" height="20" as="geometry" />
        </mxCell>
        <mxCell id="BzczfYEui5YNDzhWGODl-9" value="员工调度软件架构" style="text;html=1;strokeColor=none;fillColor=none;align=center;verticalAlign=middle;whiteSpace=wrap;rounded=0;fontColor=#1D3557;" vertex="1" parent="1">
          <mxGeometry x="440" y="20" width="140" height="40" as="geometry" />
        </mxCell>
        <mxCell id="BzczfYEui5YNDzhWGODl-10" value="TeamView" style="rounded=0;whiteSpace=wrap;html=1;fillColor=#A8DADC;strokeColor=#457B9D;fontColor=#1D3557;" vertex="1" parent="1">
          <mxGeometry x="360" y="130" width="120" height="20" as="geometry" />
        </mxCell>
        <mxCell id="BzczfYEui5YNDzhWGODl-11" value="TeamException" style="rounded=0;whiteSpace=wrap;html=1;fillColor=#A8DADC;strokeColor=#457B9D;fontColor=#1D3557;" vertex="1" parent="1">
          <mxGeometry x="360" y="250" width="120" height="20" as="geometry" />
        </mxCell>
        <mxCell id="BzczfYEui5YNDzhWGODl-12" value="TeamService" style="rounded=0;whiteSpace=wrap;html=1;fillColor=#A8DADC;strokeColor=#457B9D;fontColor=#1D3557;" vertex="1" parent="1">
          <mxGeometry x="360" y="290" width="120" height="20" as="geometry" />
        </mxCell>
        <mxCell id="BzczfYEui5YNDzhWGODl-13" value="NameListService" style="rounded=0;whiteSpace=wrap;html=1;fillColor=#A8DADC;strokeColor=#457B9D;fontColor=#1D3557;" vertex="1" parent="1">
          <mxGeometry x="360" y="270" width="120" height="20" as="geometry" />
        </mxCell>
        <mxCell id="BzczfYEui5YNDzhWGODl-15" value="&lt;div style=&quot;text-align: justify ; font-size: 15px&quot;&gt;&lt;span style=&quot;font-size: 15px&quot;&gt;com.msskx.team.view模块为主控模块，负责菜单的显示和处理用户操作&lt;/span&gt;&lt;br style=&quot;font-size: 15px&quot;&gt;&lt;/div&gt;&lt;div style=&quot;text-align: justify ; font-size: 15px&quot;&gt;&lt;br style=&quot;font-size: 15px&quot;&gt;&lt;/div&gt;&lt;div style=&quot;text-align: justify ; font-size: 15px&quot;&gt;com.msskx.team.service模块为实体对象（Employee及其子类如程序员等）的管理模块&lt;/div&gt;&lt;div style=&quot;text-align: justify ; font-size: 15px&quot;&gt;&lt;br style=&quot;font-size: 15px&quot;&gt;&lt;/div&gt;&lt;div style=&quot;text-align: justify ; font-size: 15px&quot;&gt;&amp;nbsp;NameListService和TeamService类分别用各自的数组来管理公司员工和开发团队成员对象&lt;/div&gt;&lt;div style=&quot;text-align: justify ; font-size: 15px&quot;&gt;&lt;br style=&quot;font-size: 15px&quot;&gt;&lt;/div&gt;&lt;div style=&quot;text-align: justify ; font-size: 15px&quot;&gt;domain模块为Employee及其子类等JavaBean类所在的包&lt;/div&gt;&lt;div style=&quot;font-size: 15px&quot;&gt;&lt;br style=&quot;font-size: 15px&quot;&gt;&lt;/div&gt;" style="text;html=1;strokeColor=none;fillColor=none;align=center;verticalAlign=middle;whiteSpace=wrap;rounded=0;fontSize=15;labelBackgroundColor=none;fontColor=#1D3557;" vertex="1" parent="1">
          <mxGeometry x="620" y="90" width="630" height="250" as="geometry" />
        </mxCell>
        <mxCell id="BzczfYEui5YNDzhWGODl-22" value="Employee" style="swimlane;fontStyle=1;align=center;verticalAlign=top;childLayout=stackLayout;horizontal=1;startSize=20;horizontalStack=0;resizeParent=1;resizeParentMax=0;resizeLast=0;collapsible=1;marginBottom=0;rounded=0;sketch=0;fontColor=#1D3557;strokeColor=#457B9D;fillColor=#A8DADC;" vertex="1" collapsed="1" parent="1">
          <mxGeometry x="320" y="390" width="90" height="20" as="geometry">
            <mxRectangle x="320" y="390" width="156" height="34" as="alternateBounds" />
          </mxGeometry>
        </mxCell>
        <mxCell id="BzczfYEui5YNDzhWGODl-27" value="Designer" style="swimlane;fontStyle=1;align=center;verticalAlign=top;childLayout=stackLayout;horizontal=1;startSize=20;horizontalStack=0;resizeParent=1;resizeParentMax=0;resizeLast=0;collapsible=1;marginBottom=0;rounded=0;sketch=0;fontColor=#1D3557;strokeColor=#457B9D;fillColor=#A8DADC;" vertex="1" collapsed="1" parent="1">
          <mxGeometry x="320" y="510" width="90" height="20" as="geometry">
            <mxRectangle x="320" y="510" width="156" height="34" as="alternateBounds" />
          </mxGeometry>
        </mxCell>
        <mxCell id="BzczfYEui5YNDzhWGODl-28" value="Architect" style="swimlane;fontStyle=1;align=center;verticalAlign=top;childLayout=stackLayout;horizontal=1;startSize=20;horizontalStack=0;resizeParent=1;resizeParentMax=0;resizeLast=0;collapsible=1;marginBottom=0;rounded=0;sketch=0;fontColor=#1D3557;strokeColor=#457B9D;fillColor=#A8DADC;" vertex="1" collapsed="1" parent="1">
          <mxGeometry x="320" y="568" width="90" height="20" as="geometry">
            <mxRectangle x="320" y="568" width="156" height="34" as="alternateBounds" />
          </mxGeometry>
        </mxCell>
        <mxCell id="BzczfYEui5YNDzhWGODl-37" value="Programmer" style="swimlane;fontStyle=1;align=center;verticalAlign=top;childLayout=stackLayout;horizontal=1;startSize=26;horizontalStack=0;resizeParent=1;resizeParentMax=0;resizeLast=0;collapsible=1;marginBottom=0;rounded=0;sketch=0;fontColor=#1D3557;strokeColor=#457B9D;fillColor=#A8DADC;" vertex="1" collapsed="1" parent="1">
          <mxGeometry x="320" y="450" width="90" height="26" as="geometry">
            <mxRectangle x="320" y="450" width="160" height="52" as="alternateBounds" />
          </mxGeometry>
        </mxCell>
        <mxCell id="BzczfYEui5YNDzhWGODl-38" value="+Equipment" style="text;strokeColor=none;fillColor=none;align=left;verticalAlign=top;spacingLeft=4;spacingRight=4;overflow=hidden;rotatable=0;points=[[0,0.5],[1,0.5]];portConstraint=eastwest;" vertex="1" parent="BzczfYEui5YNDzhWGODl-37">
          <mxGeometry y="26" width="90" height="26" as="geometry" />
        </mxCell>
      </root>
    </mxGraphModel>
  </diagram>
</mxfile>
